<svg xmlns="http://www.w3.org/2000/svg" width="3840" height="490" viewBox="0 0 3840 490">
  <defs>
    <style>
      .cls-1 {
        opacity: 0.35;
      }

      .cls-2, .cls-3, .cls-4 {
        fill: #fff;
      }

      .cls-3 {
        opacity: 0.9;
      }

      .cls-4 {
        opacity: 0.8;
      }
    </style>
  </defs>
  <g id="Gruppe_1" data-name="Gruppe 1" class="cls-1">
    <path id="Pfad_1" data-name="Pfad 1" class="cls-2" d="M0,343l26.7,16.3C53.3,376,107,408,160,408.3c53.3-.3,107-32.3,160-81.6C373.3,278,427,212,480,155.2,533.3,98,587,49,640,57.2,693.3,65,747,131,800,147c53.3,16,107-16,160-32.7,53.3-16.3,107-16.3,160-8.1,53.3,7.8,107,24.8,160,40.8,53.3,16,107,33,160,24.5,53.3-8.5,107-40.5,160-49,53.3-8.5,107,8.5,160,32.7,53.3,24.8,107,56.8,160,57.1,53.3-.3,107-32.3,160-57.1,53.3-24.2,107-41.2,160-16.4,53.3,24.2,107,90.2,160,138.9,53.3,49.3,107,81.3,160,89.8,53.3,8.5,107-8.5,160-73.5,53.3-65,107-180,160-163.3,53.3,16.3,107,163.3,160,204.1,53.3,41.2,107-24.8,160-98C3253.3,163,3307,82,3360,81.7c53.3.3,107,81.3,160,147,53.3,65.3,107,114.3,160,73.5C3733.3,261,3787,131,3813,65.3L3840,0V490H0Z"/>
    <path id="Pfad_2" data-name="Pfad 2" class="cls-3" d="M0,147l26.7-8.2C53.3,131,107,114,160,130.7,213.3,147,267,196,320,212.3c53.3,16.7,107-.3,160,16.4C533.3,245,587,294,640,269.5,693.3,245,747,147,800,89.8,853.3,33,907,16,960,32.7,1013.3,49,1067,98,1120,138.8c53.3,41.2,107,73.2,160,57.2,53.3-16,107-82,160-89.8,53.3-8.2,107,40.8,160,106.1,53.3,65.7,107,146.7,160,163.4,53.3,16.3,107-32.7,160-98,53.3-65.7,107-146.7,160-196,53.3-48.7,107-65.7,160,0,53.3,65.3,107,212.3,160,277.6,53.3,65.7,107,48.7,160,0,53.3-49.3,107-130.3,160-179.6,53.3-48.7,107-65.7,160-57.2,53.3,8.5,107,40.5,160,73.5,53.3,33,107,65,160,73.5,53.3,8.5,107-8.5,160,0,53.3,8.5,107,40.5,160,8.2,53.3-32.7,107-130.7,160-114.4,53.3,16.7,107,146.7,133,212.4l27,65.3v49H0Z"/>
    <path id="Pfad_3" data-name="Pfad 3" class="cls-4" d="M0,441H26.7c26.6,0,80.3,0,133.3-24.5,53.3-24.5,107-73.5,160-147C373.3,196,427,98,480,98c53.3,0,107,98,160,122.5,53.3,24.5,107-24.5,160,0C853.3,245,907,343,960,383.8c53.3,41.2,107,24.2,160-16.3,53.3-40.5,107-106.5,160-163.3,53.3-57.2,107-106.2,160-98,53.3,7.8,107,73.8,160,98,53.3,24.8,107,7.8,160-8.2,53.3-16,107-33,160-8.2,53.3,24.2,107,90.2,160,130.7,53.3,40.5,107,57.5,160,8.2,53.3-48.7,107-163.7,160-163.4,53.3-.3,107,114.7,160,163.4,53.3,49.3,107,32.3,160,24.5,53.3-8.2,107-8.2,160-32.7,53.3-24.5,107-73.5,160-57.2,53.3,16.7,107,97.7,160,106.2,53.3,8.5,107-57.5,160-89.8,53.3-32.7,107-32.7,160-57.2,53.3-24.5,107-73.5,160-57.2,53.3,16.7,107,97.7,133,138.9l27,40.8V490H0Z"/>
  </g>
</svg>
